<svg width="32" height="32" viewBox="0 0 32 32" fill="none" xmlns="http://www.w3.org/2000/svg">
<path d="M24 13.3333H22.32C21.8212 11.4013 20.7904 9.64798 19.3449 8.27252C17.8993 6.89706 16.097 5.95465 14.1426 5.55236C12.1882 5.15008 10.1601 5.30405 8.28888 5.99678C6.41762 6.68952 4.77819 7.89324 3.55687 9.47117C2.33556 11.0491 1.58132 12.938 1.37988 14.9231C1.17844 16.9083 1.53786 18.9102 2.41731 20.7013C3.29675 22.4924 4.66096 24.0009 6.35491 25.0554C8.04887 26.1099 10.0046 26.6682 12 26.6667H24C25.7681 26.6667 27.4638 25.9643 28.714 24.714C29.9643 23.4638 30.6667 21.7681 30.6667 20C30.6667 18.2319 29.9643 16.5362 28.714 15.2859C27.4638 14.0357 25.7681 13.3333 24 13.3333Z" stroke="white" stroke-width="2" stroke-linecap="round" stroke-linejoin="round"/>
</svg>
