<svg width="32" height="32" viewBox="0 0 32 32" fill="none" xmlns="http://www.w3.org/2000/svg">
<path d="M24.0092 12.5583C23.2967 12.9146 25.1167 11.8937 25.1167 9.70754C25.1167 7.52142 23.3445 5.74921 21.1584 5.74921C19.7037 5.76449 18.9812 6.225 18.15 7.175" stroke="#FECA57" stroke-width="2" stroke-linecap="round" stroke-linejoin="round"/>
<path d="M21.1592 1V2.58333" stroke="#FECA57" stroke-width="2" stroke-linecap="round" stroke-linejoin="round"/>
<path d="M15 3.54917L16.1242 4.67333" stroke="#FECA57" stroke-width="2" stroke-linecap="round" stroke-linejoin="round"/>
<path d="M28.2842 9.70834H29.8675" stroke="#FECA57" stroke-width="2" stroke-linecap="round" stroke-linejoin="round"/>
<path d="M26.1942 4.67333L27.3183 3.54917" stroke="#FECA57" stroke-width="2" stroke-linecap="round" stroke-linejoin="round"/>
<path d="M24 13.3333H22.32C21.8212 11.4013 20.7904 9.64799 19.3449 8.27253C17.8993 6.89707 16.097 5.95466 14.1426 5.55237C12.1882 5.15008 10.1601 5.30406 8.28888 5.99679C6.41762 6.68953 4.77819 7.89325 3.55687 9.47118C2.33556 11.0491 1.58132 12.938 1.37988 14.9231C1.17844 16.9083 1.53786 18.9102 2.41731 20.7013C3.29675 22.4924 4.66096 24.0009 6.35491 25.0554C8.04887 26.1099 10.0046 26.6682 12 26.6667H24C25.7681 26.6667 27.4638 25.9643 28.714 24.714C29.9643 23.4638 30.6667 21.7681 30.6667 20C30.6667 18.2319 29.9643 16.5362 28.714 15.286C27.4638 14.0357 25.7681 13.3333 24 13.3333Z" stroke="white" stroke-width="2" stroke-linecap="round" stroke-linejoin="round"/>
</svg>
