<svg width="32" height="32" viewBox="0 0 32 32" fill="none" xmlns="http://www.w3.org/2000/svg">
<path d="M10.6666 25.3333V28" stroke="#48DBFB" stroke-width="2" stroke-linecap="round" stroke-linejoin="round"/>
<path d="M10.6666 17.3333V20" stroke="#48DBFB" stroke-width="2" stroke-linecap="round" stroke-linejoin="round"/>
<path d="M21.3333 25.3333V28" stroke="#48DBFB" stroke-width="2" stroke-linecap="round" stroke-linejoin="round"/>
<path d="M21.3333 17.3333V20" stroke="#48DBFB" stroke-width="2" stroke-linecap="round" stroke-linejoin="round"/>
<path d="M16 28V30.6667" stroke="#48DBFB" stroke-width="2" stroke-linecap="round" stroke-linejoin="round"/>
<path d="M16 20V22.6667" stroke="#48DBFB" stroke-width="2" stroke-linecap="round" stroke-linejoin="round"/>
<path d="M26.6666 22.1067C28.0682 21.4928 29.2161 20.4155 29.9174 19.0553C30.6188 17.6953 30.8308 16.1355 30.5181 14.6376C30.2054 13.1397 29.3869 11.7949 28.2 10.8291C27.0132 9.86328 25.5301 9.33513 24 9.33333H22.32C21.8973 7.69669 21.0918 6.18393 19.9697 4.91973C18.8477 3.65553 17.4412 2.6761 15.8664 2.06216C14.2914 1.44822 12.5932 1.21735 10.9115 1.38858C9.22991 1.55982 7.61304 2.12826 6.19423 3.04704C4.7754 3.96582 3.59526 5.20864 2.75104 6.67306C1.90683 8.13748 1.42274 9.78156 1.33864 11.4698C1.25457 13.158 1.57291 14.8421 2.26744 16.3832C2.96196 17.9241 4.01279 19.2781 5.3333 20.3333" stroke="white" stroke-width="2" stroke-linecap="round" stroke-linejoin="round"/>
</svg>
