<svg width="20" height="17" viewBox="0 0 20 17" fill="none" xmlns="http://www.w3.org/2000/svg">
<path d="M2 1C2 0.447715 2.44772 0 3 0H5C5.55228 0 6 0.447715 6 1V1C6 1.55228 5.55228 2 5 2H3C2.44772 2 2 1.55228 2 1V1ZM14 16C14 15.4477 14.4477 15 15 15H17C17.5523 15 18 15.4477 18 16V16C18 16.5523 17.5523 17 17 17H15C14.4477 17 14 16.5523 14 16V16ZM0 6C0 5.44772 0.447715 5 1 5H4C4.55228 5 5 5.44772 5 6V6C5 6.55228 4.55228 7 4 7H1C0.447715 7 0 6.55228 0 6V6ZM7 6C7 5.44772 7.44772 5 8 5H9C9.55228 5 10 5.44772 10 6V6C10 6.55228 9.55228 7 9 7H8C7.44772 7 7 6.55228 7 6V6ZM12 6C12 5.44772 12.4477 5 13 5H17C17.5523 5 18 5.44772 18 6V6C18 6.55228 17.5523 7 17 7H13C12.4477 7 12 6.55228 12 6V6ZM2 11C2 10.4477 2.44772 10 3 10H7C7.55228 10 8 10.4477 8 11V11C8 11.5523 7.55228 12 7 12H3C2.44772 12 2 11.5523 2 11V11ZM10 11C10 10.4477 10.4477 10 11 10H12C12.5523 10 13 10.4477 13 11V11C13 11.5523 12.5523 12 12 12H11C10.4477 12 10 11.5523 10 11V11ZM15 11C15 10.4477 15.4477 10 16 10H19C19.5523 10 20 10.4477 20 11V11C20 11.5523 19.5523 12 19 12H16C15.4477 12 15 11.5523 15 11V11ZM8 1C8 0.447715 8.44772 0 9 0H19C19.5523 0 20 0.447715 20 1V1C20 1.55228 19.5523 2 19 2H9C8.44772 2 8 1.55228 8 1V1ZM0 16C0 15.4477 0.447715 15 1 15H11C11.5523 15 12 15.4477 12 16V16C12 16.5523 11.5523 17 11 17H1C0.447715 17 0 16.5523 0 16V16Z" fill="#BEDFEB"/>
</svg>
