<svg width="128" height="128" viewBox="0 0 128 128" fill="none" xmlns="http://www.w3.org/2000/svg">
<path d="M85.3333 69.3333V112" stroke="#48DBFB" stroke-width="4" stroke-linecap="round" stroke-linejoin="round"/>
<path d="M42.6667 69.3333V112" stroke="#48DBFB" stroke-width="4" stroke-linecap="round" stroke-linejoin="round"/>
<path d="M64 80V122.667" stroke="#48DBFB" stroke-width="4" stroke-linecap="round" stroke-linejoin="round"/>
<path d="M106.667 88.4267C112.273 85.9712 116.864 81.6617 119.67 76.2216C122.475 70.7815 123.323 64.5419 122.072 58.5503C120.822 52.5587 117.548 47.1798 112.8 43.3165C108.053 39.4531 102.121 37.3405 95.9999 37.3333H89.2799C87.5893 30.7868 84.3671 24.7357 79.8789 19.6789C75.3906 14.6222 69.7649 10.7044 63.4653 8.24866C57.1657 5.7929 50.3727 4.86944 43.6462 5.55438C36.9197 6.23932 30.4522 8.51307 24.7769 12.1882C19.1016 15.8633 14.381 20.8346 11.0042 26.6923C7.62732 32.5499 5.69093 39.1263 5.35461 45.8792C5.01829 52.6322 6.29166 59.3684 9.06977 65.5326C11.8479 71.6968 16.0512 77.1125 21.3332 81.3333" stroke="white" stroke-width="4" stroke-linecap="round" stroke-linejoin="round"/>
</svg>
