<svg width="32" height="32" viewBox="0 0 32 32" fill="none" xmlns="http://www.w3.org/2000/svg">
<path d="M21.3333 17.3333V28" stroke="#48DBFB" stroke-width="2" stroke-linecap="round" stroke-linejoin="round"/>
<path d="M10.6667 17.3333V28" stroke="#48DBFB" stroke-width="2" stroke-linecap="round" stroke-linejoin="round"/>
<path d="M16 20V30.6667" stroke="#48DBFB" stroke-width="2" stroke-linecap="round" stroke-linejoin="round"/>
<path d="M26.6666 22.1067C28.0683 21.4928 29.2161 20.4154 29.9174 19.0554C30.6187 17.6954 30.8308 16.1355 30.5181 14.6376C30.2054 13.1397 29.3869 11.795 28.2 10.8291C27.0132 9.86328 25.5302 9.33513 24 9.33333H22.32C21.8973 7.6967 21.0918 6.18393 19.9697 4.91974C18.8477 3.65554 17.4412 2.6761 15.8663 2.06216C14.2914 1.44822 12.5932 1.21736 10.9115 1.38859C9.22991 1.55983 7.61304 2.12826 6.19422 3.04705C4.7754 3.96583 3.59525 5.20865 2.75104 6.67306C1.90682 8.13748 1.42273 9.78157 1.33865 11.4698C1.25456 13.158 1.57291 14.8421 2.26744 16.3831C2.96196 17.9242 4.01279 19.2781 5.3333 20.3333" stroke="white" stroke-width="2" stroke-linecap="round" stroke-linejoin="round"/>
</svg>
